<svg width="40" height="40" viewBox="0 0 40 40" xmlns="http://www.w3.org/2000/svg" xmlns:xlink="http://www.w3.org/1999/xlink"><title>ico_jpg_mini</title><defs><rect id="a" x="5" y="3" width="30" height="34" rx="2"/></defs><g fill="none" fill-rule="evenodd"><path d="M0 0h40v40H0z"/><g><use fill="#FFF" xlink:href="#a"/><rect stroke="#E0E0E0" x="5.5" y="3.5" width="29" height="33" rx="2"/></g><path d="M24.435 26.139c0 .206.21.552.628 1.038a.535.535 0 0 1 .015.646.342.342 0 0 1-.27.144h-2.225c-.205 0-.37-.205-.37-.457 0-.126.041-.245.115-.332.416-.486.624-.833.624-1.04h.002c.014-.546-.804-1.055-1.698-1.612-2.196-1.172-3.865-3.773-3.865-6.351a6.3 6.3 0 0 1 6.305-6.295A6.3 6.3 0 0 1 30 18.175c0 2.578-1.669 5.179-3.865 6.351-.894.557-1.712 1.066-1.698 1.613h-.002z" fill="#4C94F0"/><path d="M18.696 24.607c-.572.524-1.023 1.005-.937 1.42l-.336.057.334-.057c.034.186.28.466.737.84a.492.492 0 0 1 .12.581.31.31 0 0 1-.22.171l-2.009.344c-.185.032-.368-.128-.41-.355a.467.467 0 0 1 .05-.318c.296-.503.427-.848.394-1.034l.336-.058-.335.057c-.077-.496-.899-.829-1.797-1.194-2.174-.718-4.107-2.809-4.53-5.136a5.704 5.704 0 0 1 4.66-6.657 5.785 5.785 0 0 1 2.526.126 7.98 7.98 0 0 0-1.496 4.675c0 2.427 1.147 4.882 2.913 6.538z" fill="#6AABFF"/></g></svg>
