
<svg width="40" height="40" viewBox="0 0 40 40" xmlns="http://www.w3.org/2000/svg" xmlns:xlink="http://www.w3.org/1999/xlink"><title>ico_apk_mini</title><defs><rect id="a" x="5" y="3" width="30" height="34" rx="1"/></defs><g fill="none" fill-rule="evenodd"><path d="M0 0h40v40H0z"/><g><use fill="#FFF" xlink:href="#a"/><rect stroke="#E0E0E0" x="5.5" y="3.5" width="29" height="33" rx="1"/></g><path d="M24.73 13.77C26.125 15.021 27 16.853 27 19H13c0-2.147.875-3.979 2.27-5.23l-.938-1.199a.7.7 0 1 1 1.104-.862l.968 1.239A7.155 7.155 0 0 1 20 12c1.315 0 2.545.34 3.596.948l.968-1.239a.7.7 0 0 1 1.104.862l-.938 1.2zm-1.93 3.808a.933.933 0 1 0 0-1.867.933.933 0 0 0 0 1.867zm-5.6 0a.933.933 0 1 0 0-1.867.933.933 0 0 0 0 1.867zM13 21h14v7H13v-7z" fill="#01BD88"/></g></svg>
